<?xml version="1.0" encoding="UTF-8" standalone="no"?>
<!DOCTYPE svg PUBLIC "-//W3C//DTD SVG 1.1//EN"
 "http://www.w3.org/Graphics/SVG/1.1/DTD/svg11.dtd">
<!-- Generated by graphviz version 2.43.0 (0)
 -->
<!-- Title: %3 Pages: 1 -->
<svg width="154pt" height="116pt"
 viewBox="0.00 0.00 153.59 116.00" xmlns="http://www.w3.org/2000/svg" xmlns:xlink="http://www.w3.org/1999/xlink">
<g id="graph0" class="graph" transform="scale(1 1) rotate(0) translate(4 112)">
<title>%3</title>
<polygon fill="white" stroke="transparent" points="-4,4 -4,-112 149.59,-112 149.59,4 -4,4"/>
<!-- n0 -->
<g id="node1" class="node">
<title>n0</title>
<ellipse fill="none" stroke="black" cx="72.79" cy="-90" rx="72.59" ry="18"/>
<text text-anchor="middle" x="72.79" y="-86.3" font-family="bold helvetica" font-size="14.00">n0: &lt;unfold&gt;</text>
</g>
<!-- n1 -->
<g id="node2" class="node">
<title>n1</title>
<ellipse fill="lightgrey" stroke="black" cx="72.79" cy="-18" rx="61.19" ry="18"/>
<text text-anchor="middle" x="72.79" y="-14.3" font-family="bold helvetica" font-size="14.00">n1: &lt;fold&gt;</text>
</g>
<!-- n0&#45;&gt;n1 -->
<g id="edge1" class="edge">
<title>n0&#45;&gt;n1</title>
<path fill="none" stroke="black" d="M66.92,-72.05C66.1,-64.35 65.85,-55.03 66.19,-46.36"/>
<polygon fill="black" stroke="black" points="69.69,-46.49 66.88,-36.28 62.7,-46.01 69.69,-46.49"/>
</g>
<!-- n1&#45;&gt;n0 -->
<g id="edge2" class="edge">
<title>n1&#45;&gt;n0</title>
<path fill="none" stroke="black" stroke-dasharray="5,2" d="M78.71,-36.28C79.51,-44.03 79.73,-53.36 79.38,-62.01"/>
<polygon fill="black" stroke="black" points="75.89,-61.83 78.67,-72.05 82.87,-62.33 75.89,-61.83"/>
</g>
</g>
</svg>
