<?xml version="1.0" encoding="UTF-8" standalone="no"?>
<!DOCTYPE svg PUBLIC "-//W3C//DTD SVG 1.1//EN"
 "http://www.w3.org/Graphics/SVG/1.1/DTD/svg11.dtd">
<!-- Generated by graphviz version 2.43.0 (0)
 -->
<!-- Title: %3 Pages: 1 -->
<svg width="548pt" height="670pt"
 viewBox="0.00 0.00 548.19 670.00" xmlns="http://www.w3.org/2000/svg" xmlns:xlink="http://www.w3.org/1999/xlink">
<g id="graph0" class="graph" transform="scale(1 1) rotate(0) translate(4 666)">
<title>%3</title>
<polygon fill="white" stroke="transparent" points="-4,4 -4,-666 544.19,-666 544.19,4 -4,4"/>
<!-- n0 -->
<g id="node1" class="node">
<title>n0</title>
<ellipse fill="none" stroke="black" cx="128.1" cy="-644" rx="72.59" ry="18"/>
<text text-anchor="middle" x="128.1" y="-640.3" font-family="bold helvetica" font-size="14.00">n0: &lt;unfold&gt;</text>
</g>
<!-- n1 -->
<g id="node2" class="node">
<title>n1</title>
<ellipse fill="none" stroke="black" cx="128.1" cy="-571" rx="72.59" ry="18"/>
<text text-anchor="middle" x="128.1" y="-567.3" font-family="bold helvetica" font-size="14.00">n1: &lt;unfold&gt;</text>
</g>
<!-- n0&#45;&gt;n1 -->
<g id="edge1" class="edge">
<title>n0&#45;&gt;n1</title>
<path fill="none" stroke="black" d="M128.1,-625.81C128.1,-617.79 128.1,-608.05 128.1,-599.07"/>
<polygon fill="black" stroke="black" points="131.6,-599.03 128.1,-589.03 124.6,-599.03 131.6,-599.03"/>
</g>
<!-- n2 -->
<g id="node3" class="node">
<title>n2</title>
<polygon fill="none" stroke="black" stroke-width="2" points="188.6,-516 67.6,-516 67.6,-480 188.6,-480 188.6,-516"/>
<text text-anchor="middle" x="128.1" y="-494.3" font-family="bold helvetica" font-size="14.00">n2: &lt;analyze&gt;</text>
</g>
<!-- n1&#45;&gt;n2 -->
<g id="edge2" class="edge">
<title>n1&#45;&gt;n2</title>
<path fill="none" stroke="black" d="M128.1,-552.81C128.1,-544.79 128.1,-535.05 128.1,-526.07"/>
<polygon fill="black" stroke="black" points="131.6,-526.03 128.1,-516.03 124.6,-526.03 131.6,-526.03"/>
</g>
<!-- n3 -->
<g id="node4" class="node">
<title>n3</title>
<ellipse fill="none" stroke="black" cx="46.1" cy="-411" rx="38.19" ry="18"/>
<text text-anchor="middle" x="46.1" y="-407.3" font-family="bold helvetica" font-size="14.00">n3: xs</text>
</g>
<!-- n2&#45;&gt;n3 -->
<g id="edge3" class="edge">
<title>n2&#45;&gt;n3</title>
<path fill="none" stroke="black" d="M95.17,-479.89C87.33,-474.83 79.42,-468.79 73.1,-462 66.72,-455.15 61.36,-446.51 57.14,-438.35"/>
<polygon fill="black" stroke="black" points="60.2,-436.62 52.72,-429.12 53.88,-439.65 60.2,-436.62"/>
<text text-anchor="middle" x="85.6" y="-450.8" font-family="bold helvetica" font-size="14.00"> xs </text>
</g>
<!-- n4 -->
<g id="node5" class="node">
<title>n4</title>
<ellipse fill="none" stroke="black" cx="213.1" cy="-411" rx="72.59" ry="18"/>
<text text-anchor="middle" x="213.1" y="-407.3" font-family="bold helvetica" font-size="14.00">n4: &lt;unfold&gt;</text>
</g>
<!-- n2&#45;&gt;n4 -->
<g id="edge4" class="edge">
<title>n2&#45;&gt;n4</title>
<path fill="none" stroke="black" d="M145.3,-479.8C157.9,-467.19 175.18,-449.92 189.14,-435.96"/>
<polygon fill="black" stroke="black" points="191.9,-438.14 196.5,-428.6 186.95,-433.19 191.9,-438.14"/>
<text text-anchor="middle" x="243.6" y="-450.8" font-family="bold helvetica" font-size="14.00"> xs=Cons(.v0, .v1) </text>
</g>
<!-- n16 -->
<g id="node17" class="node">
<title>n16</title>
<ellipse fill="none" stroke="black" cx="382.1" cy="-411" rx="78.79" ry="18"/>
<text text-anchor="middle" x="382.1" y="-407.3" font-family="bold helvetica" font-size="14.00">n16: &lt;unfold&gt;</text>
</g>
<!-- n2&#45;&gt;n16 -->
<g id="edge17" class="edge">
<title>n2&#45;&gt;n16</title>
<path fill="none" stroke="black" d="M188.68,-492.69C226.33,-488.33 275.01,-479.57 315.1,-462 330.11,-455.42 344.92,-444.91 356.78,-435.23"/>
<polygon fill="black" stroke="black" points="359.11,-437.84 364.48,-428.71 354.59,-432.5 359.11,-437.84"/>
<text text-anchor="middle" x="374.1" y="-450.8" font-family="bold helvetica" font-size="14.00"> xs=Nil() </text>
</g>
<!-- n5 -->
<g id="node6" class="node">
<title>n5</title>
<ellipse fill="none" stroke="black" cx="213.1" cy="-338" rx="72.59" ry="18"/>
<text text-anchor="middle" x="213.1" y="-334.3" font-family="bold helvetica" font-size="14.00">n5: &lt;unfold&gt;</text>
</g>
<!-- n4&#45;&gt;n5 -->
<g id="edge5" class="edge">
<title>n4&#45;&gt;n5</title>
<path fill="none" stroke="black" d="M213.1,-392.81C213.1,-384.79 213.1,-375.05 213.1,-366.07"/>
<polygon fill="black" stroke="black" points="216.6,-366.03 213.1,-356.03 209.6,-366.03 216.6,-366.03"/>
</g>
<!-- n6 -->
<g id="node7" class="node">
<title>n6</title>
<ellipse fill="none" stroke="black" cx="218.1" cy="-265" rx="72.59" ry="18"/>
<text text-anchor="middle" x="218.1" y="-261.3" font-family="bold helvetica" font-size="14.00">n6: &lt;unfold&gt;</text>
</g>
<!-- n5&#45;&gt;n6 -->
<g id="edge6" class="edge">
<title>n5&#45;&gt;n6</title>
<path fill="none" stroke="black" d="M214.31,-319.81C214.87,-311.79 215.56,-302.05 216.19,-293.07"/>
<polygon fill="black" stroke="black" points="219.69,-293.25 216.9,-283.03 212.7,-292.76 219.69,-293.25"/>
</g>
<!-- n7 -->
<g id="node8" class="node">
<title>n7</title>
<ellipse fill="lightgrey" stroke="black" cx="225.1" cy="-192" rx="63.09" ry="18"/>
<text text-anchor="middle" x="225.1" y="-188.3" font-family="bold helvetica" font-size="14.00">n7: &lt;split&gt;</text>
</g>
<!-- n6&#45;&gt;n7 -->
<g id="edge7" class="edge">
<title>n6&#45;&gt;n7</title>
<path fill="none" stroke="black" d="M219.79,-246.81C220.58,-238.79 221.54,-229.05 222.43,-220.07"/>
<polygon fill="black" stroke="black" points="225.92,-220.32 223.42,-210.03 218.95,-219.64 225.92,-220.32"/>
</g>
<!-- n8 -->
<g id="node9" class="node">
<title>n8</title>
<ellipse fill="none" stroke="black" cx="384.1" cy="-105" rx="32.49" ry="18"/>
<text text-anchor="middle" x="384.1" y="-101.3" font-family="bold helvetica" font-size="14.00">n8: *</text>
</g>
<!-- n7&#45;&gt;n8 -->
<g id="edge8" class="edge">
<title>n7&#45;&gt;n8</title>
<path fill="none" stroke="black" d="M253.52,-175.8C281.41,-160.9 323.84,-138.21 352.71,-122.78"/>
<polygon fill="black" stroke="black" points="354.4,-125.85 361.57,-118.04 351.1,-119.67 354.4,-125.85"/>
<text text-anchor="middle" x="330.6" y="-144.8" font-family="bold helvetica" font-size="14.00"> .v3 </text>
</g>
<!-- n11 -->
<g id="node12" class="node">
<title>n11</title>
<ellipse fill="lightgrey" stroke="black" cx="99.1" cy="-105" rx="66.89" ry="18"/>
<text text-anchor="middle" x="99.1" y="-101.3" font-family="bold helvetica" font-size="14.00">n11: &lt;fold&gt;</text>
</g>
<!-- n7&#45;&gt;n11 -->
<g id="edge11" class="edge">
<title>n7&#45;&gt;n11</title>
<path fill="none" stroke="black" d="M201.69,-175.21C181.84,-161.82 153.16,-142.47 131.17,-127.64"/>
<polygon fill="black" stroke="black" points="133.05,-124.68 122.8,-121.99 129.13,-130.49 133.05,-124.68"/>
<text text-anchor="middle" x="185.6" y="-144.8" font-family="bold helvetica" font-size="14.00"> .v4 </text>
</g>
<!-- n13 -->
<g id="node14" class="node">
<title>n13</title>
<ellipse fill="none" stroke="black" cx="226.1" cy="-105" rx="42.49" ry="18"/>
<text text-anchor="middle" x="226.1" y="-101.3" font-family="bold helvetica" font-size="14.00">n13: +</text>
</g>
<!-- n7&#45;&gt;n13 -->
<g id="edge14" class="edge">
<title>n7&#45;&gt;n13</title>
<path fill="none" stroke="black" stroke-width="1.7" d="M225.3,-173.8C225.44,-161.59 225.64,-144.99 225.8,-131.28"/>
<ellipse fill="black" stroke="black" stroke-width="1.7" cx="225.85" cy="-127.18" rx="4" ry="4"/>
</g>
<!-- n9 -->
<g id="node10" class="node">
<title>n9</title>
<ellipse fill="none" stroke="black" cx="384.1" cy="-18" rx="42.49" ry="18"/>
<text text-anchor="middle" x="384.1" y="-14.3" font-family="bold helvetica" font-size="14.00">n9: .v0</text>
</g>
<!-- n8&#45;&gt;n9 -->
<g id="edge9" class="edge">
<title>n8&#45;&gt;n9</title>
<path fill="none" stroke="black" d="M384.1,-86.8C384.1,-75.16 384.1,-59.55 384.1,-46.24"/>
<polygon fill="black" stroke="black" points="387.6,-46.18 384.1,-36.18 380.6,-46.18 387.6,-46.18"/>
<text text-anchor="middle" x="399.6" y="-57.8" font-family="bold helvetica" font-size="14.00"> #0 </text>
</g>
<!-- n10 -->
<g id="node11" class="node">
<title>n10</title>
<ellipse fill="none" stroke="black" cx="492.1" cy="-18" rx="48.19" ry="18"/>
<text text-anchor="middle" x="492.1" y="-14.3" font-family="bold helvetica" font-size="14.00">n10: .v0</text>
</g>
<!-- n8&#45;&gt;n10 -->
<g id="edge10" class="edge">
<title>n8&#45;&gt;n10</title>
<path fill="none" stroke="black" d="M402.42,-89.58C419.37,-76.24 444.82,-56.2 464.29,-40.89"/>
<polygon fill="black" stroke="black" points="466.52,-43.58 472.22,-34.64 462.2,-38.08 466.52,-43.58"/>
<text text-anchor="middle" x="459.6" y="-57.8" font-family="bold helvetica" font-size="14.00"> #1 </text>
</g>
<!-- n11&#45;&gt;n2 -->
<g id="edge12" class="edge">
<title>n11&#45;&gt;n2</title>
<path fill="none" stroke="black" stroke-dasharray="5,2" d="M103.28,-123.14C107.08,-140.22 112.1,-167.26 112.1,-191 112.1,-412 112.1,-412 112.1,-412 112.1,-431.59 116.25,-453.28 120.32,-469.85"/>
<polygon fill="black" stroke="black" points="117.04,-471.12 122.95,-479.92 123.81,-469.36 117.04,-471.12"/>
</g>
<!-- n12 -->
<g id="node13" class="node">
<title>n12</title>
<ellipse fill="none" stroke="black" cx="48.1" cy="-18" rx="48.19" ry="18"/>
<text text-anchor="middle" x="48.1" y="-14.3" font-family="bold helvetica" font-size="14.00">n12: .v1</text>
</g>
<!-- n11&#45;&gt;n12 -->
<g id="edge13" class="edge">
<title>n11&#45;&gt;n12</title>
<path fill="none" stroke="black" d="M88.78,-86.8C81.54,-74.74 71.74,-58.4 63.57,-44.79"/>
<polygon fill="black" stroke="black" points="66.37,-42.66 58.23,-35.89 60.37,-46.26 66.37,-42.66"/>
<text text-anchor="middle" x="89.6" y="-57.8" font-family="bold helvetica" font-size="14.00"> xs </text>
</g>
<!-- n14 -->
<g id="node15" class="node">
<title>n14</title>
<ellipse fill="none" stroke="black" cx="162.1" cy="-18" rx="48.19" ry="18"/>
<text text-anchor="middle" x="162.1" y="-14.3" font-family="bold helvetica" font-size="14.00">n14: .v3</text>
</g>
<!-- n13&#45;&gt;n14 -->
<g id="edge15" class="edge">
<title>n13&#45;&gt;n14</title>
<path fill="none" stroke="black" d="M213.76,-87.61C204.43,-75.23 191.47,-58.01 180.86,-43.92"/>
<polygon fill="black" stroke="black" points="183.43,-41.51 174.62,-35.63 177.84,-45.72 183.43,-41.51"/>
<text text-anchor="middle" x="213.6" y="-57.8" font-family="bold helvetica" font-size="14.00"> #0 </text>
</g>
<!-- n15 -->
<g id="node16" class="node">
<title>n15</title>
<ellipse fill="none" stroke="black" cx="276.1" cy="-18" rx="48.19" ry="18"/>
<text text-anchor="middle" x="276.1" y="-14.3" font-family="bold helvetica" font-size="14.00">n15: .v4</text>
</g>
<!-- n13&#45;&gt;n15 -->
<g id="edge16" class="edge">
<title>n13&#45;&gt;n15</title>
<path fill="none" stroke="black" d="M235.97,-87.21C243.1,-75.1 252.84,-58.53 260.94,-44.76"/>
<polygon fill="black" stroke="black" points="264.18,-46.15 266.24,-35.76 258.15,-42.6 264.18,-46.15"/>
<text text-anchor="middle" x="269.6" y="-57.8" font-family="bold helvetica" font-size="14.00"> #1 </text>
</g>
<!-- n17 -->
<g id="node18" class="node">
<title>n17</title>
<ellipse fill="none" stroke="black" cx="382.1" cy="-338" rx="78.79" ry="18"/>
<text text-anchor="middle" x="382.1" y="-334.3" font-family="bold helvetica" font-size="14.00">n17: &lt;unfold&gt;</text>
</g>
<!-- n16&#45;&gt;n17 -->
<g id="edge18" class="edge">
<title>n16&#45;&gt;n17</title>
<path fill="none" stroke="black" d="M382.1,-392.81C382.1,-384.79 382.1,-375.05 382.1,-366.07"/>
<polygon fill="black" stroke="black" points="385.6,-366.03 382.1,-356.03 378.6,-366.03 385.6,-366.03"/>
</g>
<!-- n18 -->
<g id="node19" class="node">
<title>n18</title>
<ellipse fill="none" stroke="black" cx="382.1" cy="-265" rx="53.89" ry="18"/>
<text text-anchor="middle" x="382.1" y="-261.3" font-family="bold helvetica" font-size="14.00">n18: 0i32</text>
</g>
<!-- n17&#45;&gt;n18 -->
<g id="edge19" class="edge">
<title>n17&#45;&gt;n18</title>
<path fill="none" stroke="black" d="M382.1,-319.81C382.1,-311.79 382.1,-302.05 382.1,-293.07"/>
<polygon fill="black" stroke="black" points="385.6,-293.03 382.1,-283.03 378.6,-293.03 385.6,-293.03"/>
</g>
</g>
</svg>
